<svg width="32" height="32" fill="none" xmlns="http://www.w3.org/2000/svg"><rect width="32" height="32" rx="4" fill="#12151D"/><path fill-rule="evenodd" clip-rule="evenodd" d="M5.71 7.402 4 7l.893 1.513 10.362 17.571.623 1.158.03-.05.03.05.623-1.158 10.363-17.57L27.816 7l-1.71.402-7.665 1.804-.31.073-.163.275-2.06 3.486-2.06-3.486-.162-.275-.311-.073L5.71 7.402zm9.327 7.112-2.317-3.921-5.643-1.328 5.525 9.369 2.435-4.12zm.871 9.62-2.295-4.262 2.295-3.884 2.295 3.884-2.295 4.262zm3.306-5.5-2.435-4.12 2.317-3.921 5.643-1.328-5.525 9.369z" fill="url(#a)"/><defs><linearGradient id="a" x1=".532" y1="17.121" x2="30.128" y2="17.121" gradientUnits="userSpaceOnUse"><stop stop-color="#3157E1"/><stop offset="1" stop-color="#06D6A0"/></linearGradient></defs></svg>