<svg width="79" height="65" fill="none" xmlns="http://www.w3.org/2000/svg"><path d="M4.164 58.596 1.692 51.66H.228L3.372 60h1.584l3.132-8.34h-1.44l-2.484 6.936zm4.612-1.932c0 2.04 1.38 3.444 3.096 3.444 1.104 0 1.896-.528 2.316-1.092V60h1.38v-6.612h-1.38v.96c-.408-.54-1.176-1.068-2.292-1.068-1.74 0-3.12 1.344-3.12 3.384zm5.412.024c0 1.428-.972 2.232-2.004 2.232-1.02 0-2.004-.828-2.004-2.256s.984-2.196 2.004-2.196c1.032 0 2.004.804 2.004 2.22zM17.365 60h1.368v-8.88h-1.368V60zm9.152-6.612h-1.368v3.684c0 1.212-.66 1.836-1.668 1.836-.996 0-1.656-.624-1.656-1.836v-3.684h-1.356v3.888c0 1.848 1.176 2.82 2.724 2.82.78 0 1.524-.324 1.956-.888V60h1.368v-6.612zm1.349 3.276c0 2.04 1.38 3.444 3.096 3.444 1.104 0 1.896-.528 2.316-1.092V60h1.38v-6.612h-1.38v.96c-.408-.54-1.176-1.068-2.292-1.068-1.74 0-3.12 1.344-3.12 3.384zm5.412.024c0 1.428-.972 2.232-2.004 2.232-1.02 0-2.004-.828-2.004-2.256s.984-2.196 2.004-2.196c1.032 0 2.004.804 2.004 2.22zm3.393 1.476c0 1.344.732 1.836 1.908 1.836h1.08v-1.14h-.84c-.576 0-.768-.204-.768-.696v-3.66h1.608v-1.116H38.05v-1.644h-1.38v1.644h-.78v1.116h.78v3.66zM40.919 60h1.369v-6.612H40.92V60zm.697-7.488c.48 0 .864-.384.864-.876a.863.863 0 0 0-.864-.876.866.866 0 0 0-.877.876c0 .492.385.876.877.876zm8.768 4.176c0-2.076-1.488-3.408-3.372-3.408s-3.372 1.332-3.372 3.408c0 2.076 1.428 3.42 3.312 3.42 1.896 0 3.432-1.344 3.432-3.42zm-5.352 0c0-1.5.924-2.22 1.956-2.22 1.02 0 1.992.72 1.992 2.22 0 1.5-1.008 2.232-2.028 2.232-1.032 0-1.92-.732-1.92-2.232zM56.428 60h1.356v-3.9c0-1.848-1.164-2.82-2.712-2.82-.792 0-1.524.324-1.968.864v-.756h-1.368V60h1.368v-3.696c0-1.212.66-1.836 1.668-1.836.996 0 1.656.624 1.656 1.836V60zm2.645-3.336c0 2.04 1.38 3.444 3.096 3.444 1.104 0 1.896-.528 2.316-1.092V60h1.38v-6.612h-1.38v.96c-.408-.54-1.176-1.068-2.292-1.068-1.74 0-3.12 1.344-3.12 3.384zm5.412.024c0 1.428-.972 2.232-2.004 2.232-1.02 0-2.004-.828-2.004-2.256s.984-2.196 2.004-2.196c1.032 0 2.004.804 2.004 2.22zm4.545-.168c0-1.404.624-1.824 1.632-1.824h.348V53.28c-.936 0-1.596.408-1.98 1.068v-.96h-1.368V60h1.368v-3.48zm5.841 1.908-1.86-5.04h-1.524l2.604 6.504-1.344 3.216h1.416l4.056-9.72h-1.416l-1.932 5.04z" fill="#fff"/><path d="m33.348 27.783 7.043-10.696 6.783 10.696" stroke="url(#a)" stroke-width="4"/><path d="M40.391 16.826 34.913 6.391 19 3l21.391 37.044L61 3 46.391 6.391l-6 10.435z" stroke="url(#b)" stroke-width="4"/><defs><linearGradient id="a" x1="21" y1="26" x2="66" y2="26" gradientUnits="userSpaceOnUse"><stop stop-color="#3157E1"/><stop offset="1" stop-color="#06D6A0"/></linearGradient><linearGradient id="b" x1="11" y1="28.5" x2="69" y2="29.5" gradientUnits="userSpaceOnUse"><stop stop-color="#3157E1"/><stop offset="1" stop-color="#06D6A0"/></linearGradient></defs></svg>